<mxfile host="app.diagrams.net" modified="2023-02-16T08:41:06.385Z" agent="5.0 (X11)" etag="pAX5tlig8PlMkLTDHWu-" version="20.8.20" type="github">
  <diagram name="Page-1" id="2zhF82C1bgts54StES3e">
    <mxGraphModel dx="1195" dy="661" grid="1" gridSize="10" guides="1" tooltips="1" connect="1" arrows="1" fold="1" page="1" pageScale="1" pageWidth="850" pageHeight="1100" math="0" shadow="0">
      <root>
        <mxCell id="0" />
        <mxCell id="1" parent="0" />
        <mxCell id="zsLK717KQM9R8cQD8Umy-1" value="Households" style="swimlane;fillColor=#ffe6cc;strokeColor=#d79b00;strokeWidth=2;fontSize=14;startSize=23;" parent="1" vertex="1">
          <mxGeometry x="80" y="360" width="320" height="280" as="geometry">
            <mxRectangle x="480" y="200" width="110" height="30" as="alternateBounds" />
          </mxGeometry>
        </mxCell>
        <mxCell id="zsLK717KQM9R8cQD8Umy-2" value="HH 1" style="rounded=0;whiteSpace=wrap;html=1;fillColor=#ffe6cc;strokeColor=#d79b00;strokeWidth=2;" parent="zsLK717KQM9R8cQD8Umy-1" vertex="1">
          <mxGeometry x="20" y="40" width="50" height="30" as="geometry" />
        </mxCell>
        <mxCell id="zsLK717KQM9R8cQD8Umy-4" value="HH 2" style="rounded=0;whiteSpace=wrap;html=1;fillColor=#ffe6cc;strokeColor=#d79b00;strokeWidth=2;" parent="zsLK717KQM9R8cQD8Umy-1" vertex="1">
          <mxGeometry x="80" y="40" width="50" height="30" as="geometry" />
        </mxCell>
        <mxCell id="zsLK717KQM9R8cQD8Umy-5" value="HH N" style="rounded=0;whiteSpace=wrap;html=1;fillColor=#ffe6cc;strokeColor=#d79b00;strokeWidth=2;" parent="zsLK717KQM9R8cQD8Umy-1" vertex="1">
          <mxGeometry x="250" y="40" width="50" height="30" as="geometry" />
        </mxCell>
        <mxCell id="zsLK717KQM9R8cQD8Umy-6" value="..." style="text;html=1;strokeColor=none;fillColor=none;align=center;verticalAlign=middle;whiteSpace=wrap;rounded=0;" parent="zsLK717KQM9R8cQD8Umy-1" vertex="1">
          <mxGeometry x="160" y="40" width="60" height="30" as="geometry" />
        </mxCell>
        <mxCell id="zsLK717KQM9R8cQD8Umy-7" value="&lt;b&gt;Housing market&lt;/b&gt;" style="ellipse;whiteSpace=wrap;html=1;fillColor=#dae8fc;strokeColor=#6c8ebf;" parent="zsLK717KQM9R8cQD8Umy-1" vertex="1">
          <mxGeometry x="40" y="160" width="230" height="80" as="geometry" />
        </mxCell>
        <mxCell id="zsLK717KQM9R8cQD8Umy-8" value="house selling" style="curved=1;endArrow=classic;html=1;rounded=0;exitX=0;exitY=0;exitDx=0;exitDy=0;entryX=0.5;entryY=1;entryDx=0;entryDy=0;" parent="zsLK717KQM9R8cQD8Umy-1" source="zsLK717KQM9R8cQD8Umy-7" target="zsLK717KQM9R8cQD8Umy-2" edge="1">
          <mxGeometry width="50" height="50" relative="1" as="geometry">
            <mxPoint x="70" y="120" as="sourcePoint" />
            <mxPoint x="120" y="70" as="targetPoint" />
            <Array as="points">
              <mxPoint x="40" y="130" />
            </Array>
          </mxGeometry>
        </mxCell>
        <mxCell id="zsLK717KQM9R8cQD8Umy-9" value="" style="curved=1;endArrow=classic;html=1;rounded=0;entryX=0.25;entryY=1;entryDx=0;entryDy=0;" parent="zsLK717KQM9R8cQD8Umy-1" source="zsLK717KQM9R8cQD8Umy-7" target="zsLK717KQM9R8cQD8Umy-6" edge="1">
          <mxGeometry width="50" height="50" relative="1" as="geometry">
            <mxPoint x="184" y="160" as="sourcePoint" />
            <mxPoint x="155" y="58" as="targetPoint" />
            <Array as="points">
              <mxPoint x="180" y="120" />
            </Array>
          </mxGeometry>
        </mxCell>
        <mxCell id="zsLK717KQM9R8cQD8Umy-10" value="house buying" style="curved=1;endArrow=classic;html=1;rounded=0;exitX=0.5;exitY=1;exitDx=0;exitDy=0;entryX=0.396;entryY=-0.025;entryDx=0;entryDy=0;entryPerimeter=0;" parent="zsLK717KQM9R8cQD8Umy-1" source="zsLK717KQM9R8cQD8Umy-4" target="zsLK717KQM9R8cQD8Umy-7" edge="1">
          <mxGeometry width="50" height="50" relative="1" as="geometry">
            <mxPoint x="165" y="170" as="sourcePoint" />
            <mxPoint x="185" y="80" as="targetPoint" />
            <Array as="points">
              <mxPoint x="130" y="110" />
            </Array>
          </mxGeometry>
        </mxCell>
        <mxCell id="zsLK717KQM9R8cQD8Umy-11" value="" style="curved=1;endArrow=classic;html=1;rounded=0;entryX=0.5;entryY=1;entryDx=0;entryDy=0;exitX=0.9;exitY=0.163;exitDx=0;exitDy=0;exitPerimeter=0;" parent="zsLK717KQM9R8cQD8Umy-1" source="zsLK717KQM9R8cQD8Umy-7" target="zsLK717KQM9R8cQD8Umy-5" edge="1">
          <mxGeometry width="50" height="50" relative="1" as="geometry">
            <mxPoint x="177" y="170" as="sourcePoint" />
            <mxPoint x="185" y="80" as="targetPoint" />
            <Array as="points">
              <mxPoint x="270" y="150" />
              <mxPoint x="280" y="130" />
              <mxPoint x="280" y="100" />
            </Array>
          </mxGeometry>
        </mxCell>
        <mxCell id="7U-eSvjGvhqrHsPkwBtt-4" value="" style="curved=1;endArrow=classic;html=1;rounded=0;entryX=0.743;entryY=0.013;entryDx=0;entryDy=0;entryPerimeter=0;exitX=1;exitY=1;exitDx=0;exitDy=0;" edge="1" parent="zsLK717KQM9R8cQD8Umy-1" source="zsLK717KQM9R8cQD8Umy-6" target="zsLK717KQM9R8cQD8Umy-7">
          <mxGeometry x="0.0019" width="50" height="50" relative="1" as="geometry">
            <mxPoint x="230" y="70" as="sourcePoint" />
            <mxPoint x="201" y="188" as="targetPoint" />
            <Array as="points">
              <mxPoint x="240" y="130" />
            </Array>
            <mxPoint as="offset" />
          </mxGeometry>
        </mxCell>
        <mxCell id="zsLK717KQM9R8cQD8Umy-12" value="&lt;b&gt;Government&lt;/b&gt;" style="rounded=0;whiteSpace=wrap;html=1;fillColor=#ffe6cc;strokeColor=#d79b00;strokeWidth=2;" parent="1" vertex="1">
          <mxGeometry x="600" y="160" width="140" height="80" as="geometry" />
        </mxCell>
        <mxCell id="zsLK717KQM9R8cQD8Umy-13" value="&lt;b&gt;Banking sector&lt;/b&gt;" style="rounded=0;whiteSpace=wrap;html=1;fillColor=#ffe6cc;strokeColor=#d79b00;strokeWidth=2;" parent="1" vertex="1">
          <mxGeometry x="570" y="560" width="140" height="80" as="geometry" />
        </mxCell>
        <mxCell id="zsLK717KQM9R8cQD8Umy-14" value="&lt;b&gt;Firm&lt;/b&gt;" style="rounded=0;whiteSpace=wrap;html=1;fillColor=#ffe6cc;strokeColor=#d79b00;strokeWidth=2;" parent="1" vertex="1">
          <mxGeometry x="285" y="80" width="140" height="80" as="geometry" />
        </mxCell>
        <mxCell id="zsLK717KQM9R8cQD8Umy-15" value="&lt;b&gt;External sector&lt;/b&gt;" style="rounded=0;whiteSpace=wrap;html=1;fillColor=#ffe6cc;strokeColor=#d79b00;strokeWidth=2;" parent="1" vertex="1">
          <mxGeometry x="20" y="80" width="140" height="80" as="geometry" />
        </mxCell>
        <mxCell id="zsLK717KQM9R8cQD8Umy-16" value="Interest on loans" style="endArrow=classic;html=1;rounded=0;entryX=0;entryY=0.25;entryDx=0;entryDy=0;shape=flexArrow;strokeWidth=1;endSize=6;targetPerimeterSpacing=0;fillColor=#e1d5e7;strokeColor=#9673a6;exitX=1;exitY=0.75;exitDx=0;exitDy=0;" parent="1" source="zsLK717KQM9R8cQD8Umy-1" target="zsLK717KQM9R8cQD8Umy-13" edge="1">
          <mxGeometry width="50" height="50" relative="1" as="geometry">
            <mxPoint x="430" y="560" as="sourcePoint" />
            <mxPoint x="450" y="370" as="targetPoint" />
          </mxGeometry>
        </mxCell>
        <mxCell id="zsLK717KQM9R8cQD8Umy-17" value="Interest on deposits" style="endArrow=classic;html=1;rounded=0;exitX=0;exitY=0.75;exitDx=0;exitDy=0;shape=flexArrow;strokeWidth=1;endSize=6;targetPerimeterSpacing=0;fillColor=#e1d5e7;strokeColor=#9673a6;startArrow=none;startFill=0;" parent="1" source="zsLK717KQM9R8cQD8Umy-13" edge="1">
          <mxGeometry width="50" height="50" relative="1" as="geometry">
            <mxPoint x="503" y="380" as="sourcePoint" />
            <mxPoint x="400" y="620" as="targetPoint" />
          </mxGeometry>
        </mxCell>
        <mxCell id="7U-eSvjGvhqrHsPkwBtt-1" value="&lt;b&gt;Central bank&lt;/b&gt;" style="rounded=0;whiteSpace=wrap;html=1;fillColor=#ffe6cc;strokeColor=#d79b00;strokeWidth=2;" vertex="1" parent="1">
          <mxGeometry x="680" y="360" width="140" height="80" as="geometry" />
        </mxCell>
        <mxCell id="7U-eSvjGvhqrHsPkwBtt-2" value="&lt;div&gt;Interest&lt;/div&gt;&lt;div&gt;on deposits&lt;/div&gt;" style="endArrow=classic;html=1;rounded=0;exitX=0.75;exitY=0;exitDx=0;exitDy=0;shape=flexArrow;strokeWidth=1;endSize=6;targetPerimeterSpacing=0;fillColor=#e1d5e7;strokeColor=#9673a6;startArrow=none;startFill=0;entryX=1;entryY=1;entryDx=0;entryDy=0;" edge="1" parent="1" source="7U-eSvjGvhqrHsPkwBtt-1" target="zsLK717KQM9R8cQD8Umy-12">
          <mxGeometry width="50" height="50" relative="1" as="geometry">
            <mxPoint x="730" y="310" as="sourcePoint" />
            <mxPoint x="760" y="280" as="targetPoint" />
          </mxGeometry>
        </mxCell>
        <mxCell id="7U-eSvjGvhqrHsPkwBtt-5" value="Imports" style="endArrow=classic;html=1;rounded=0;exitX=-0.021;exitY=0.113;exitDx=0;exitDy=0;shape=flexArrow;strokeWidth=1;endSize=6;targetPerimeterSpacing=0;fillColor=#e1d5e7;strokeColor=#9673a6;startArrow=none;startFill=0;entryX=1.014;entryY=0.113;entryDx=0;entryDy=0;entryPerimeter=0;exitPerimeter=0;" edge="1" parent="1" source="zsLK717KQM9R8cQD8Umy-14" target="zsLK717KQM9R8cQD8Umy-15">
          <mxGeometry width="50" height="50" relative="1" as="geometry">
            <mxPoint x="237" y="187" as="sourcePoint" />
            <mxPoint x="200" y="100" as="targetPoint" />
          </mxGeometry>
        </mxCell>
        <mxCell id="7U-eSvjGvhqrHsPkwBtt-6" value="Exports" style="endArrow=classic;html=1;rounded=0;shape=flexArrow;strokeWidth=1;endSize=6;targetPerimeterSpacing=0;fillColor=#e1d5e7;strokeColor=#9673a6;startArrow=none;startFill=0;entryX=0.003;entryY=0.671;entryDx=0;entryDy=0;entryPerimeter=0;exitX=1.014;exitY=0.663;exitDx=0;exitDy=0;exitPerimeter=0;" edge="1" parent="1" source="zsLK717KQM9R8cQD8Umy-15" target="zsLK717KQM9R8cQD8Umy-14">
          <mxGeometry width="50" height="50" relative="1" as="geometry">
            <mxPoint x="170" y="130" as="sourcePoint" />
            <mxPoint x="220" y="150" as="targetPoint" />
          </mxGeometry>
        </mxCell>
        <mxCell id="7U-eSvjGvhqrHsPkwBtt-7" value="&lt;div&gt;Government&lt;/div&gt;&lt;div&gt;&amp;nbsp;consumption&lt;/div&gt;" style="endArrow=classic;html=1;rounded=0;exitX=-0.03;exitY=0.092;exitDx=0;exitDy=0;shape=flexArrow;strokeWidth=1;endSize=6;targetPerimeterSpacing=0;fillColor=#e1d5e7;strokeColor=#9673a6;startArrow=none;startFill=0;entryX=1;entryY=0.25;entryDx=0;entryDy=0;exitPerimeter=0;" edge="1" parent="1" source="zsLK717KQM9R8cQD8Umy-12">
          <mxGeometry width="50" height="50" relative="1" as="geometry">
            <mxPoint x="558.9999999999998" y="100" as="sourcePoint" />
            <mxPoint x="424.0000000000002" y="100.00000000000011" as="targetPoint" />
          </mxGeometry>
        </mxCell>
        <mxCell id="7U-eSvjGvhqrHsPkwBtt-8" value="Taxes" style="endArrow=classic;html=1;rounded=0;exitX=1.008;exitY=0.637;exitDx=0;exitDy=0;shape=flexArrow;strokeWidth=1;endSize=6;targetPerimeterSpacing=0;fillColor=#e1d5e7;strokeColor=#9673a6;startArrow=none;startFill=0;entryX=-0.005;entryY=0.671;entryDx=0;entryDy=0;entryPerimeter=0;exitPerimeter=0;" edge="1" parent="1" source="zsLK717KQM9R8cQD8Umy-14" target="zsLK717KQM9R8cQD8Umy-12">
          <mxGeometry width="50" height="50" relative="1" as="geometry">
            <mxPoint x="568.9999999999998" y="200" as="sourcePoint" />
            <mxPoint x="434.0000000000002" y="200.0000000000001" as="targetPoint" />
          </mxGeometry>
        </mxCell>
        <mxCell id="7U-eSvjGvhqrHsPkwBtt-9" value="Wages" style="endArrow=classic;html=1;rounded=0;exitX=0.097;exitY=1.025;exitDx=0;exitDy=0;shape=flexArrow;strokeWidth=1;endSize=6;targetPerimeterSpacing=0;fillColor=#e1d5e7;strokeColor=#9673a6;startArrow=none;startFill=0;entryX=0.398;entryY=-0.011;entryDx=0;entryDy=0;entryPerimeter=0;exitPerimeter=0;" edge="1" parent="1" source="zsLK717KQM9R8cQD8Umy-14" target="zsLK717KQM9R8cQD8Umy-1">
          <mxGeometry width="50" height="50" relative="1" as="geometry">
            <mxPoint x="292" y="220" as="sourcePoint" />
            <mxPoint x="425" y="223" as="targetPoint" />
          </mxGeometry>
        </mxCell>
        <mxCell id="7U-eSvjGvhqrHsPkwBtt-10" value="&lt;div&gt;Profits&lt;/div&gt;" style="endArrow=classic;html=1;rounded=0;shape=flexArrow;strokeWidth=1;endSize=6;targetPerimeterSpacing=0;fillColor=#e1d5e7;strokeColor=#9673a6;startArrow=none;startFill=0;entryX=0.54;entryY=-0.008;entryDx=0;entryDy=0;entryPerimeter=0;exitX=0.417;exitY=1.033;exitDx=0;exitDy=0;exitPerimeter=0;verticalAlign=top;" edge="1" parent="1" source="zsLK717KQM9R8cQD8Umy-14" target="zsLK717KQM9R8cQD8Umy-1">
          <mxGeometry x="0.0034" width="50" height="50" relative="1" as="geometry">
            <mxPoint x="350" y="180" as="sourcePoint" />
            <mxPoint x="340" y="355" as="targetPoint" />
            <mxPoint as="offset" />
          </mxGeometry>
        </mxCell>
        <mxCell id="7U-eSvjGvhqrHsPkwBtt-11" value="&lt;div&gt;Consumption&lt;/div&gt;" style="endArrow=classic;html=1;rounded=0;shape=flexArrow;strokeWidth=1;endSize=6;targetPerimeterSpacing=0;fillColor=#e1d5e7;strokeColor=#9673a6;startArrow=none;startFill=0;entryX=0.75;entryY=1;entryDx=0;entryDy=0;exitX=0.688;exitY=-0.013;exitDx=0;exitDy=0;exitPerimeter=0;verticalAlign=bottom;" edge="1" parent="1" source="zsLK717KQM9R8cQD8Umy-1" target="zsLK717KQM9R8cQD8Umy-14">
          <mxGeometry width="50" height="50" relative="1" as="geometry">
            <mxPoint x="490" y="165" as="sourcePoint" />
            <mxPoint x="490" y="360" as="targetPoint" />
          </mxGeometry>
        </mxCell>
        <mxCell id="7U-eSvjGvhqrHsPkwBtt-12" value="Bonds" style="endArrow=classic;html=1;rounded=0;exitX=0.187;exitY=-0.04;exitDx=0;exitDy=0;shape=flexArrow;strokeWidth=1;endSize=6;targetPerimeterSpacing=0;fillColor=#e1d5e7;strokeColor=#9673a6;startArrow=none;startFill=0;entryX=0.448;entryY=1.05;entryDx=0;entryDy=0;entryPerimeter=0;exitPerimeter=0;sourcePerimeterSpacing=0;startSize=0;" edge="1" parent="1" source="zsLK717KQM9R8cQD8Umy-13" target="zsLK717KQM9R8cQD8Umy-12">
          <mxGeometry width="50" height="50" relative="1" as="geometry">
            <mxPoint x="573" y="241" as="sourcePoint" />
            <mxPoint x="470" y="339" as="targetPoint" />
          </mxGeometry>
        </mxCell>
        <mxCell id="7U-eSvjGvhqrHsPkwBtt-13" value="Bonds" style="endArrow=classic;html=1;rounded=0;exitX=0.31;exitY=-0.033;exitDx=0;exitDy=0;shape=flexArrow;strokeWidth=1;endSize=6;targetPerimeterSpacing=0;fillColor=#e1d5e7;strokeColor=#9673a6;startArrow=none;startFill=0;exitPerimeter=0;sourcePerimeterSpacing=0;startSize=0;entryX=0.798;entryY=1.008;entryDx=0;entryDy=0;entryPerimeter=0;" edge="1" parent="1" source="7U-eSvjGvhqrHsPkwBtt-1" target="zsLK717KQM9R8cQD8Umy-12">
          <mxGeometry width="50" height="50" relative="1" as="geometry">
            <mxPoint x="636" y="437" as="sourcePoint" />
            <mxPoint x="720" y="270" as="targetPoint" />
          </mxGeometry>
        </mxCell>
        <mxCell id="7U-eSvjGvhqrHsPkwBtt-14" value="Taxes" style="endArrow=classic;html=1;rounded=0;shape=flexArrow;strokeWidth=1;endSize=6;targetPerimeterSpacing=0;fillColor=#e1d5e7;strokeColor=#9673a6;startArrow=none;startFill=0;entryX=-0.015;entryY=0.835;entryDx=0;entryDy=0;exitX=1;exitY=0.061;exitDx=0;exitDy=0;exitPerimeter=0;verticalAlign=bottom;entryPerimeter=0;" edge="1" parent="1" source="zsLK717KQM9R8cQD8Umy-1" target="zsLK717KQM9R8cQD8Umy-12">
          <mxGeometry width="50" height="50" relative="1" as="geometry">
            <mxPoint x="410" y="370" as="sourcePoint" />
            <mxPoint x="500" y="164" as="targetPoint" />
          </mxGeometry>
        </mxCell>
        <mxCell id="7U-eSvjGvhqrHsPkwBtt-15" value="&lt;div&gt;Benefits&lt;/div&gt;" style="endArrow=classic;html=1;rounded=0;strokeWidth=1;targetPerimeterSpacing=0;fillColor=#e1d5e7;strokeColor=#9673a6;startArrow=none;startFill=0;exitX=0.071;exitY=1;exitDx=0;exitDy=0;exitPerimeter=0;verticalAlign=bottom;movable=1;resizable=1;rotatable=1;deletable=1;editable=1;locked=0;connectable=1;entryX=1;entryY=0.25;entryDx=0;entryDy=0;shape=flexArrow;" edge="1" parent="1" source="zsLK717KQM9R8cQD8Umy-12" target="zsLK717KQM9R8cQD8Umy-1">
          <mxGeometry width="50" height="50" relative="1" as="geometry">
            <mxPoint x="398" y="400.5" as="sourcePoint" />
            <mxPoint x="480" y="430" as="targetPoint" />
          </mxGeometry>
        </mxCell>
        <mxCell id="7U-eSvjGvhqrHsPkwBtt-17" value="&lt;div&gt;Interest&lt;/div&gt;&lt;div&gt;on deposits&lt;/div&gt;" style="endArrow=classic;html=1;rounded=0;exitX=0.5;exitY=1;exitDx=0;exitDy=0;shape=flexArrow;strokeWidth=1;endSize=6;targetPerimeterSpacing=0;fillColor=#e1d5e7;strokeColor=#9673a6;startArrow=none;startFill=0;entryX=0.917;entryY=-0.054;entryDx=0;entryDy=0;entryPerimeter=0;" edge="1" parent="1" source="7U-eSvjGvhqrHsPkwBtt-1" target="zsLK717KQM9R8cQD8Umy-13">
          <mxGeometry width="50" height="50" relative="1" as="geometry">
            <mxPoint x="761" y="430" as="sourcePoint" />
            <mxPoint x="744" y="263" as="targetPoint" />
          </mxGeometry>
        </mxCell>
      </root>
    </mxGraphModel>
  </diagram>
</mxfile>
